<?xml version="1.0" encoding="UTF-8" standalone="no"?>
<svg
   viewBox="0 0 261.41 56.74"
   version="1.1"
   id="svg26"
   sodipodi:docname="logo.svg"
   inkscape:version="1.1.1 (3bf5ae0d25, 2021-09-20)"
   xmlns:inkscape="http://www.inkscape.org/namespaces/inkscape"
   xmlns:sodipodi="http://sodipodi.sourceforge.net/DTD/sodipodi-0.dtd"
   xmlns="http://www.w3.org/2000/svg"
   xmlns:svg="http://www.w3.org/2000/svg">
  <sodipodi:namedview
     id="namedview28"
     pagecolor="#ffffff"
     bordercolor="#666666"
     borderopacity="1.0"
     inkscape:pageshadow="2"
     inkscape:pageopacity="0.0"
     inkscape:pagecheckerboard="0"
     showgrid="false"
     inkscape:zoom="3.9411444"
     inkscape:cx="180.78505"
     inkscape:cy="149.06838"
     inkscape:window-width="3840"
     inkscape:window-height="2081"
     inkscape:window-x="2391"
     inkscape:window-y="-9"
     inkscape:window-maximized="1"
     inkscape:current-layer="svg26" />
  <defs
     id="defs4">
    <style
       id="style2">.cls-1{fill:#fff;}</style>
  </defs>
  <g
     id="Layer_2"
     data-name="Layer 2"
     inkscape:export-filename="C:\github\egaroucid\Egaroucid5\img\logo.png"
     inkscape:export-xdpi="705.30121"
     inkscape:export-ydpi="705.30121">
    <g
       id="Layer_1-2"
       data-name="Layer 1">
      <path
         class="cls-1"
         d="M22.52,18.11v9.05h-7.9a4,4,0,0,0-2.27.48,1.83,1.83,0,0,0-.67,1.61,1.79,1.79,0,0,0,.68,1.68,6.34,6.34,0,0,0,2.8.4h8.13V43h-9.5q-6.7,0-10.25-3.2T0,30.5V14.56q0-5.84,3.35-9t9.43-3.22H23.29V14H15.58c-2.09,0-3.13.67-3.13,2a1.79,1.79,0,0,0,.75,1.66,5.37,5.37,0,0,0,2.65.46Z"
         id="path6" />
      <path
         class="cls-1"
         d="M44.54,30.71V40.92a13.22,13.22,0,0,1-4.62.9,11.92,11.92,0,0,1-9.13-4.08,14.25,14.25,0,0,1-3.74-10A14.41,14.41,0,0,1,31.55,17,15.23,15.23,0,0,1,42.6,12.63,16.45,16.45,0,0,1,49.27,14a12.45,12.45,0,0,1,5,3.75q3,3.9,3,11.32v9.77q0,8-4.51,12.91a15.13,15.13,0,0,1-11.75,5,18.85,18.85,0,0,1-5.57-1.1V45.51a9,9,0,0,0,4.41,1.19,5.7,5.7,0,0,0,4.65-2,8.69,8.69,0,0,0,1.63-5.67V27.88q0-4.68-3.78-4.68a3.78,3.78,0,0,0-2.81,1.24,3.92,3.92,0,0,0-1.21,2.84,3.78,3.78,0,0,0,1.15,2.83,3.85,3.85,0,0,0,2.84,1.13A4.68,4.68,0,0,0,44.54,30.71Z"
         id="path8" />
      <path
         class="cls-1"
         d="M79.35,31.81V43.34a14.68,14.68,0,0,1-2.5.24,15.24,15.24,0,0,1-11.17-4.41,14.88,14.88,0,0,1-4.47-11A15.38,15.38,0,0,1,76.7,12.66q7.2,0,11.36,4.21t4.15,11.52V43H81.07V29.19a5.75,5.75,0,0,0-1.14-3.75A3.76,3.76,0,0,0,76.85,24a4.37,4.37,0,0,0-4.32,4.32,4.12,4.12,0,0,0,1.16,3,3.92,3.92,0,0,0,3,1.19A5,5,0,0,0,79.35,31.81Z"
         id="path10" />
      <path
         class="cls-1"
         d="M113,13V24.87a4.32,4.32,0,0,0-2.11-.65c-2,0-3,1.54-3,4.64V43H96.7V26.72q0-6.43,3.52-10.26a12.09,12.09,0,0,1,9.38-3.83A22.65,22.65,0,0,1,113,13Z"
         id="path12" />
      <path
         class="cls-1"
         d="M131.16,12.63A14.72,14.72,0,0,1,142,17.17a14.94,14.94,0,0,1,4.51,10.89,14.88,14.88,0,0,1-4.57,11,15.71,15.71,0,0,1-22.09,0,14.81,14.81,0,0,1-4.59-10.94,14.7,14.7,0,0,1,4.59-11A15.62,15.62,0,0,1,131.16,12.63Zm-.3,11a4.06,4.06,0,0,0-3,1.3,4.4,4.4,0,0,0-1.25,3.17,4.34,4.34,0,0,0,1.27,3.15,4.15,4.15,0,0,0,6.07,0,4.34,4.34,0,0,0,1.27-3.15,4.4,4.4,0,0,0-1.25-3.17A4.08,4.08,0,0,0,130.86,23.62Z"
         id="path14" />
      <path
         class="cls-1"
         d="M150.15,13.67h11.14V30.44c0,1.69.71,2.53,2.12,2.53s2.08-.84,2.08-2.53V13.67h11.14V30.23A13.52,13.52,0,0,1,172.79,40a13.39,13.39,0,0,1-19.63-.64q-3-3.62-3-10Z"
         id="path16" />
      <path
         class="cls-1"
         d="M200.26,29.28l11.05-.42a15.73,15.73,0,0,1-4.8,10.58A14.62,14.62,0,0,1,196,43.58,15,15,0,0,1,184.93,39a15.3,15.3,0,0,1-4.51-11.17A14.51,14.51,0,0,1,185,17.1a15.43,15.43,0,0,1,26.06,8l-11.29.42a4.46,4.46,0,0,0-3.69-1.91,4.21,4.21,0,0,0-3.13,1.25,4.69,4.69,0,0,0,.08,6.4,4.33,4.33,0,0,0,3.23,1.31Q199.06,32.58,200.26,29.28Z"
         id="path18" />
      <path
         class="cls-1"
         d="M226.43,13.25V43H215.29V13.25ZM220.89,0a5.48,5.48,0,0,1,3.92,1.59,5.08,5.08,0,0,1,1.65,3.77,5,5,0,0,1-1.56,3.81,6.14,6.14,0,0,1-8,0,5,5,0,0,1-1.56-3.81A5.08,5.08,0,0,1,217,1.59,5.46,5.46,0,0,1,220.89,0Z"
         id="path20" />
      <path
         class="cls-1"
         d="M250.28,2.29h11.13V27q0,6.83-3.57,11.11a14.67,14.67,0,0,1-5.23,3.94,15.88,15.88,0,0,1-17.7-3,14.75,14.75,0,0,1-4.56-11,14.93,14.93,0,0,1,4.53-10.87,14.56,14.56,0,0,1,10.72-4.59c.65,0,1.65.06,3,.18V25.11A4.43,4.43,0,0,0,245.84,24a4,4,0,0,0-3,1.26,4.23,4.23,0,0,0-1.23,3.06,4,4,0,0,0,1.28,3A4.28,4.28,0,0,0,246,32.56q4.29,0,4.29-5.93Z"
         id="path22" />
    </g>
  </g>
  <g
     id="Layer_2-6"
     data-name="Layer 2"
     inkscape:export-filename="C:\github\egaroucid\Egaroucid5\img\logo.png"
     inkscape:export-xdpi="705.30121"
     inkscape:export-ydpi="705.30121"
     transform="translate(-1.8084147,100.01007)"
     style="fill:#000000;fill-opacity:1">
    <g
       id="Layer_1-2-1"
       data-name="Layer 1"
       style="fill:#000000;fill-opacity:1">
      <path
         class="cls-1"
         d="m 22.52,18.11 v 9.05 h -7.9 a 4,4 0 0 0 -2.27,0.48 1.83,1.83 0 0 0 -0.67,1.61 1.79,1.79 0 0 0 0.68,1.68 6.34,6.34 0 0 0 2.8,0.4 h 8.13 V 43 h -9.5 Q 7.09,43 3.54,39.8 -0.01,36.6 0,30.5 V 14.56 Q 0,8.72 3.35,5.56 6.7,2.4 12.78,2.34 H 23.29 V 14 h -7.71 c -2.09,0 -3.13,0.67 -3.13,2 a 1.79,1.79 0 0 0 0.75,1.66 5.37,5.37 0 0 0 2.65,0.46 z"
         id="path6-5"
         style="fill:#000000;fill-opacity:1" />
      <path
         class="cls-1"
         d="m 44.54,30.71 v 10.21 a 13.22,13.22 0 0 1 -4.62,0.9 11.92,11.92 0 0 1 -9.13,-4.08 14.25,14.25 0 0 1 -3.74,-10 14.41,14.41 0 0 1 4.5,-10.74 15.23,15.23 0 0 1 11.05,-4.37 16.45,16.45 0 0 1 6.67,1.37 12.45,12.45 0 0 1 5,3.75 q 3,3.9 3,11.32 v 9.77 q 0,8 -4.51,12.91 a 15.13,15.13 0 0 1 -11.75,5 18.85,18.85 0 0 1 -5.57,-1.1 V 45.51 a 9,9 0 0 0 4.41,1.19 5.7,5.7 0 0 0 4.65,-2 8.69,8.69 0 0 0 1.63,-5.67 V 27.88 q 0,-4.68 -3.78,-4.68 a 3.78,3.78 0 0 0 -2.81,1.24 3.92,3.92 0 0 0 -1.21,2.84 3.78,3.78 0 0 0 1.15,2.83 3.85,3.85 0 0 0 2.84,1.13 4.68,4.68 0 0 0 2.22,-0.53 z"
         id="path8-9"
         style="fill:#000000;fill-opacity:1" />
      <path
         class="cls-1"
         d="m 79.35,31.81 v 11.53 a 14.68,14.68 0 0 1 -2.5,0.24 15.24,15.24 0 0 1 -11.17,-4.41 14.88,14.88 0 0 1 -4.47,-11 15.38,15.38 0 0 1 15.49,-15.51 q 7.2,0 11.36,4.21 4.16,4.21 4.15,11.52 V 43 H 81.07 V 29.19 A 5.75,5.75 0 0 0 79.93,25.44 3.76,3.76 0 0 0 76.85,24 a 4.37,4.37 0 0 0 -4.32,4.32 4.12,4.12 0 0 0 1.16,3 3.92,3.92 0 0 0 3,1.19 5,5 0 0 0 2.66,-0.7 z"
         id="path10-6"
         style="fill:#000000;fill-opacity:1" />
      <path
         class="cls-1"
         d="m 113,13 v 11.87 a 4.32,4.32 0 0 0 -2.11,-0.65 c -2,0 -3,1.54 -3,4.64 V 43 H 96.7 V 26.72 q 0,-6.43 3.52,-10.26 A 12.09,12.09 0 0 1 109.6,12.63 22.65,22.65 0 0 1 113,13 Z"
         id="path12-0"
         style="fill:#000000;fill-opacity:1" />
      <path
         class="cls-1"
         d="m 131.16,12.63 a 14.72,14.72 0 0 1 10.84,4.54 14.94,14.94 0 0 1 4.51,10.89 14.88,14.88 0 0 1 -4.57,11 15.71,15.71 0 0 1 -22.09,0 14.81,14.81 0 0 1 -4.59,-10.94 14.7,14.7 0 0 1 4.59,-11 15.62,15.62 0 0 1 11.31,-4.49 z m -0.3,11 a 4.06,4.06 0 0 0 -3,1.3 4.4,4.4 0 0 0 -1.25,3.17 4.34,4.34 0 0 0 1.27,3.15 4.15,4.15 0 0 0 6.07,0 4.34,4.34 0 0 0 1.27,-3.15 4.4,4.4 0 0 0 -1.25,-3.17 4.08,4.08 0 0 0 -3.11,-1.31 z"
         id="path14-9"
         style="fill:#000000;fill-opacity:1" />
      <path
         class="cls-1"
         d="m 150.15,13.67 h 11.14 v 16.77 c 0,1.69 0.71,2.53 2.12,2.53 1.41,0 2.08,-0.84 2.08,-2.53 V 13.67 h 11.14 V 30.23 A 13.52,13.52 0 0 1 172.79,40 13.39,13.39 0 0 1 153.16,39.36 q -3,-3.62 -3,-10 z"
         id="path16-5"
         style="fill:#000000;fill-opacity:1" />
      <path
         class="cls-1"
         d="m 200.26,29.28 11.05,-0.42 A 15.73,15.73 0 0 1 206.51,39.44 14.62,14.62 0 0 1 196,43.58 15,15 0 0 1 184.93,39 15.3,15.3 0 0 1 180.42,27.83 14.51,14.51 0 0 1 185,17.1 a 15.43,15.43 0 0 1 26.06,8 l -11.29,0.42 a 4.46,4.46 0 0 0 -3.69,-1.91 4.21,4.21 0 0 0 -3.13,1.25 4.69,4.69 0 0 0 0.08,6.4 4.33,4.33 0 0 0 3.23,1.31 q 2.8,0.01 4,-3.29 z"
         id="path18-2"
         style="fill:#000000;fill-opacity:1" />
      <path
         class="cls-1"
         d="M 226.43,13.25 V 43 H 215.29 V 13.25 Z M 220.89,0 a 5.48,5.48 0 0 1 3.92,1.59 5.08,5.08 0 0 1 1.65,3.77 5,5 0 0 1 -1.56,3.81 6.14,6.14 0 0 1 -8,0 A 5,5 0 0 1 215.34,5.36 5.08,5.08 0 0 1 217,1.59 5.46,5.46 0 0 1 220.89,0 Z"
         id="path20-1"
         style="fill:#000000;fill-opacity:1" />
      <path
         class="cls-1"
         d="m 250.28,2.29 h 11.13 V 27 q 0,6.83 -3.57,11.11 a 14.67,14.67 0 0 1 -5.23,3.94 15.88,15.88 0 0 1 -17.7,-3 14.75,14.75 0 0 1 -4.56,-11 14.93,14.93 0 0 1 4.53,-10.87 14.56,14.56 0 0 1 10.72,-4.59 c 0.65,0 1.65,0.06 3,0.18 v 12.34 a 4.43,4.43 0 0 0 -2.76,-1.11 4,4 0 0 0 -3,1.26 4.23,4.23 0 0 0 -1.23,3.06 4,4 0 0 0 1.28,3 4.28,4.28 0 0 0 3.11,1.24 q 4.29,0 4.29,-5.93 z"
         id="path22-5"
         style="fill:#000000;fill-opacity:1" />
    </g>
  </g>
</svg>
